P2
10 3
255
255 64 255 32 128 32 128 64 64 255 
128 0 128 128 64 64 0 255 0 255 
128 128 128 128 255 32 255 255 255 32 
