P2
6 4
255
128 32 0 0 32 128 
128 64 128 32 255 32 
64 255 255 64 64 64 
32 0 32 128 128 128 
