P2
10 3
255
0 128 0 32 0 32 128 64 64 64 
32 32 32 32 32 32 128 255 0 128 
64 64 255 128 64 0 128 255 32 0 
