P2
10 3
255
255 128 255 0 128 0 32 128 128 128 
64 32 255 0 128 255 255 32 255 64 
0 32 128 128 128 0 64 128 64 64 
